<?xml version="1.0" encoding="UTF-8" standalone="no"?>
<!DOCTYPE svg PUBLIC "-//W3C//DTD SVG 1.1//EN" "http://www.w3.org/Graphics/SVG/1.1/DTD/svg11.dtd">
<svg width="100%" height="100%" viewBox="0 0 1080 1080" version="1.1" xmlns="http://www.w3.org/2000/svg" xmlns:xlink="http://www.w3.org/1999/xlink" xml:space="preserve" xmlns:serif="http://www.serif.com/" style="fill-rule:evenodd;clip-rule:evenodd;stroke-linejoin:round;stroke-miterlimit:2;">
    <rect id="Plan-de-travail1" serif:id="Plan de travail1" x="0" y="0" width="1080" height="1080" style="fill:none;"/>
    <g id="Plan-de-travail11" serif:id="Plan de travail1">
        <rect x="0" y="0" width="1080" height="1080" style="fill:white;"/>
        <g transform="matrix(0.95,0,0,0.95,27,27)">
            <path d="M485.085,309.686C443.345,307.258 408.108,301.886 379.373,293.568C338.797,281.822 309.28,264.432 290.822,241.398C272.364,218.364 263.136,189.763 263.136,155.593C263.136,121.424 272.364,92.822 290.822,69.788C309.28,46.754 338.797,29.364 379.373,17.619C419.949,5.873 473.492,-0 540,-0C606.508,-0 660.051,5.873 700.627,17.619C741.203,29.364 770.72,46.754 789.178,69.788C807.636,92.822 816.864,121.424 816.864,155.593C816.864,189.763 807.636,218.364 789.178,241.398C770.72,264.432 741.203,281.822 700.627,293.568C671.892,301.886 636.655,307.258 594.915,309.686L594.915,427.998L485.085,427.998L485.085,309.686ZM540,224.237C571.424,224.237 598.576,222.331 621.458,218.517C644.339,214.703 662.034,207.839 674.542,197.924C687.051,188.008 693.305,173.898 693.305,155.593C693.305,137.288 687.051,123.178 674.542,113.263C662.034,103.347 644.339,96.483 621.458,92.669C598.576,88.856 571.424,86.949 540,86.949C508.576,86.949 481.042,88.856 457.398,92.669C433.754,96.483 415.297,103.347 402.025,113.263C388.754,123.178 382.119,137.288 382.119,155.593C382.119,173.898 388.754,188.008 402.025,197.924C415.297,207.839 433.754,214.703 457.398,218.517C481.042,222.331 508.576,224.237 540,224.237Z"/>
            <path d="M464.032,329.292C429.018,326.326 398.853,321.124 373.519,313.79C327.93,300.593 295.131,280.442 274.393,254.563C253.08,227.965 242.083,195.049 242.083,155.593C242.083,116.137 253.08,83.221 274.393,56.623C295.131,30.744 327.93,10.593 373.519,-2.604C415.579,-14.779 471.059,-21.053 540,-21.053C608.941,-21.053 664.421,-14.779 706.481,-2.604C752.07,10.593 784.869,30.744 805.607,56.623C826.92,83.221 837.917,116.137 837.917,155.593C837.917,195.049 826.92,227.965 805.607,254.563C784.869,280.442 752.07,300.593 706.481,313.79C681.147,321.124 650.982,326.326 615.968,329.292L615.968,449.051L464.032,449.051L464.032,329.292ZM485.085,309.686L485.085,427.998L594.915,427.998L594.915,309.686C636.655,307.258 671.892,301.886 700.627,293.568C741.203,281.822 770.72,264.432 789.178,241.398C807.636,218.364 816.864,189.763 816.864,155.593C816.864,121.424 807.636,92.822 789.178,69.788C770.72,46.754 741.203,29.364 700.627,17.619C660.051,5.873 606.508,-0 540,-0C473.492,-0 419.949,5.873 379.373,17.619C338.797,29.364 309.28,46.754 290.822,69.788C272.364,92.822 263.136,121.424 263.136,155.593C263.136,189.763 272.364,218.364 290.822,241.398C309.28,264.432 338.797,281.822 379.373,293.568C408.108,301.886 443.345,307.258 485.085,309.686ZM540,224.237C508.576,224.237 481.042,222.331 457.398,218.517C433.754,214.703 415.297,207.839 402.025,197.924C388.754,188.008 382.119,173.898 382.119,155.593C382.119,137.288 388.754,123.178 402.025,113.263C415.297,103.347 433.754,96.483 457.398,92.669C481.042,88.856 508.576,86.949 540,86.949C571.424,86.949 598.576,88.856 621.458,92.669C644.339,96.483 662.034,103.347 674.542,113.263C687.051,123.178 693.305,137.288 693.305,155.593C693.305,173.898 687.051,188.008 674.542,197.924C662.034,207.839 644.339,214.703 621.458,218.517C598.576,222.331 571.424,224.237 540,224.237ZM540,203.185C570.087,203.185 596.088,201.402 617.997,197.751C636.656,194.641 651.264,189.511 661.465,181.426C669.027,175.431 672.252,166.661 672.252,155.593C672.252,144.526 669.027,135.756 661.465,129.761C651.264,121.675 636.656,116.546 617.997,113.436C596.088,109.784 570.087,108.002 540,108.002C509.853,108.002 483.434,109.795 460.751,113.454C441.122,116.619 425.644,121.897 414.626,130.128C406.704,136.047 403.171,144.666 403.171,155.593C403.171,166.52 406.704,175.14 414.626,181.058C425.644,189.29 441.122,194.567 460.751,197.733C483.434,201.392 509.853,203.185 540,203.185Z" style="fill:white;"/>
        </g>
        <g transform="matrix(0.95,0,0,0.95,27,27)">
            <path d="M711.488,576.231C717.109,576.746 722.26,577.33 726.941,577.983C746.619,580.729 760.347,585.686 768.127,592.856C775.907,600.025 779.797,610.322 779.797,623.746L779.797,772.688L665.39,772.688L665.39,637.475C665.39,628.322 663.636,621.381 660.127,616.653C656.619,611.924 648.992,608.644 637.246,606.814C625.5,604.983 607.424,604.068 583.017,604.068L404.085,604.068L404.085,772.688L289.678,772.688L289.678,393.559L643.424,393.559C671.186,393.559 696.127,396.686 718.246,402.941C740.364,409.195 757.907,419.644 770.873,434.288C783.839,448.932 790.322,468.915 790.322,494.237C790.322,511.017 787.271,524.898 781.169,535.881C775.068,546.864 766.678,555.407 756,561.508C745.322,567.61 733.119,572.034 719.39,574.78C716.778,575.302 714.144,575.786 711.488,576.231ZM404.085,527.644L643.424,527.644C652.576,527.644 660.28,526.119 666.534,523.068C672.788,520.017 675.915,514.22 675.915,505.678C675.915,497.746 672.788,492.331 666.534,489.432C660.28,486.534 652.576,485.085 643.424,485.085L404.085,485.085L404.085,527.644Z"/>
            <path d="M776.763,572.904C778.845,574.339 780.721,575.833 782.394,577.375C794.153,588.211 800.849,603.457 800.849,623.746L800.849,793.741L644.337,793.741L644.337,637.475C644.337,634.533 644.506,632.057 643.795,630.248C642.144,629.675 637.647,628.183 634.004,627.615C622.961,625.894 605.963,625.12 583.017,625.12L425.137,625.12L425.137,793.741L268.625,793.741L268.625,372.507L643.424,372.507C673.315,372.507 700.159,375.948 723.974,382.682C750.37,390.146 771.161,402.856 786.635,420.332C802.669,438.441 811.375,462.924 811.375,494.237C811.375,515.171 807.185,532.403 799.573,546.105C793.628,556.806 786.018,565.733 776.763,572.904ZM711.488,576.231C714.144,575.786 716.778,575.302 719.39,574.78C733.119,572.034 745.322,567.61 756,561.508C766.678,555.407 775.068,546.864 781.169,535.881C787.271,524.898 790.322,511.017 790.322,494.237C790.322,468.915 783.839,448.932 770.873,434.288C757.907,419.644 740.364,409.195 718.246,402.941C696.127,396.686 671.186,393.559 643.424,393.559L289.678,393.559L289.678,772.688L404.085,772.688L404.085,604.068L583.017,604.068C607.424,604.068 625.5,604.983 637.246,606.814C648.992,608.644 656.619,611.924 660.127,616.653C663.636,621.381 665.39,628.322 665.39,637.475L665.39,772.688L779.797,772.688L779.797,623.746C779.797,610.322 775.907,600.025 768.127,592.856C760.347,585.686 746.619,580.729 726.941,577.983C722.26,577.33 717.109,576.746 711.488,576.231ZM404.085,527.644L404.085,485.085L643.424,485.085C652.576,485.085 660.28,486.534 666.534,489.432C672.788,492.331 675.915,497.746 675.915,505.678C675.915,514.22 672.788,520.017 666.534,523.068C660.28,526.119 652.576,527.644 643.424,527.644L404.085,527.644ZM648.696,506.356C647.032,506.204 645.273,506.137 643.424,506.137L425.137,506.137L425.137,506.591L643.424,506.591C645.276,506.591 647.034,506.521 648.696,506.356Z" style="fill:white;"/>
        </g>
        <g transform="matrix(0.95,0,0,0.95,27,27)">
            <path d="M485.085,996.127C443.345,993.699 408.108,988.326 379.373,980.008C338.797,968.263 309.28,950.873 290.822,927.839C272.364,904.805 263.136,876.203 263.136,842.034C263.136,807.864 272.364,779.263 290.822,756.229C309.28,733.195 338.797,715.805 379.373,704.059C419.949,692.314 473.492,686.441 540,686.441C606.508,686.441 660.051,692.314 700.627,704.059C741.203,715.805 770.72,733.195 789.178,756.229C807.636,779.263 816.864,807.864 816.864,842.034C816.864,876.203 807.636,904.805 789.178,927.839C770.72,950.873 741.203,968.263 700.627,980.008C671.892,988.326 636.655,993.699 594.915,996.127L594.915,1080L485.085,1080L485.085,996.127ZM540,910.678C571.424,910.678 598.576,908.771 621.458,904.958C644.339,901.144 662.034,894.28 674.542,884.364C687.051,874.449 693.305,860.339 693.305,842.034C693.305,823.729 687.051,809.619 674.542,799.703C662.034,789.788 644.339,782.924 621.458,779.11C598.576,775.297 571.424,773.39 540,773.39C508.576,773.39 481.042,775.297 457.398,779.11C433.754,782.924 415.297,789.788 402.025,799.703C388.754,809.619 382.119,823.729 382.119,842.034C382.119,860.339 388.754,874.449 402.025,884.364C415.297,894.28 433.754,901.144 457.398,904.958C481.042,908.771 508.576,910.678 540,910.678Z"/>
            <path d="M464.032,1015.73C429.018,1012.77 398.853,1007.56 373.519,1000.23C327.93,987.034 295.131,966.883 274.393,941.004C253.08,914.406 242.083,881.49 242.083,842.034C242.083,802.578 253.08,769.662 274.393,743.064C295.131,717.185 327.93,697.034 373.519,683.837C415.579,671.662 471.059,665.388 540,665.388C608.941,665.388 664.421,671.662 706.481,683.837C752.07,697.034 784.869,717.185 805.607,743.064C826.92,769.662 837.917,802.578 837.917,842.034C837.917,881.49 826.92,914.406 805.607,941.004C784.869,966.883 752.07,987.034 706.481,1000.23C681.147,1007.56 650.982,1012.77 615.968,1015.73L615.968,1101.05L464.032,1101.05L464.032,1015.73ZM485.085,996.127L485.085,1080L594.915,1080L594.915,996.127C636.655,993.699 671.892,988.326 700.627,980.008C741.203,968.263 770.72,950.873 789.178,927.839C807.636,904.805 816.864,876.203 816.864,842.034C816.864,807.864 807.636,779.263 789.178,756.229C770.72,733.195 741.203,715.805 700.627,704.059C660.051,692.314 606.508,686.441 540,686.441C473.492,686.441 419.949,692.314 379.373,704.059C338.797,715.805 309.28,733.195 290.822,756.229C272.364,779.263 263.136,807.864 263.136,842.034C263.136,876.203 272.364,904.805 290.822,927.839C309.28,950.873 338.797,968.263 379.373,980.008C408.108,988.326 443.345,993.699 485.085,996.127ZM540,910.678C508.576,910.678 481.042,908.771 457.398,904.958C433.754,901.144 415.297,894.28 402.025,884.364C388.754,874.449 382.119,860.339 382.119,842.034C382.119,823.729 388.754,809.619 402.025,799.703C415.297,789.788 433.754,782.924 457.398,779.11C481.042,775.297 508.576,773.39 540,773.39C571.424,773.39 598.576,775.297 621.458,779.11C644.339,782.924 662.034,789.788 674.542,799.703C687.051,809.619 693.305,823.729 693.305,842.034C693.305,860.339 687.051,874.449 674.542,884.364C662.034,894.28 644.339,901.144 621.458,904.958C598.576,908.771 571.424,910.678 540,910.678ZM540,889.625C570.087,889.625 596.088,887.843 617.997,884.191C636.656,881.082 651.264,875.952 661.465,867.866C669.027,861.872 672.252,853.101 672.252,842.034C672.252,830.967 669.027,822.196 661.465,816.201C651.264,808.116 636.656,802.986 617.997,799.876C596.088,796.225 570.087,794.442 540,794.442C509.853,794.442 483.434,796.236 460.751,799.894C441.122,803.06 425.644,808.337 414.626,816.569C406.704,822.487 403.171,831.107 403.171,842.034C403.171,852.961 406.704,861.58 414.626,867.499C425.644,875.731 441.122,881.008 460.751,884.174C483.434,887.832 509.853,889.625 540,889.625Z" style="fill:white;"/>
        </g>
    </g>
</svg>
