<svg width="192" height="192" viewBox="0 0 192 192" fill="none" xmlns="http://www.w3.org/2000/svg">
<rect width="192" height="192" fill="#1E1E1E"/>
<g clip-path="url(#clip0_0_1)">
<rect width="192" height="192" fill="white"/>
<mask id="path-3-outside-1_0_1" maskUnits="userSpaceOnUse" x="-26" y="54" width="243" height="86" fill="black">
<rect fill="white" x="-26" y="54" width="243" height="86"/>
<path d="M23.4465 138L-22.3775 56.08H13.7185L52.3745 132.24L40.2145 132.496L76.4385 56.08H115.095L151.319 132.496L139.159 132.24L177.815 56.08H213.399L168.087 138H124.823L89.4945 69.008H102.039L66.7105 138H23.4465Z"/>
</mask>
<path d="M23.4465 138L-22.3775 56.08H13.7185L52.3745 132.24L40.2145 132.496L76.4385 56.08H115.095L151.319 132.496L139.159 132.24L177.815 56.08H213.399L168.087 138H124.823L89.4945 69.008H102.039L66.7105 138H23.4465Z" fill="black"/>
<path d="M23.4465 138L21.701 138.976L22.2736 140H23.4465V138ZM-22.3775 56.08V54.08H-25.7879L-24.123 57.0564L-22.3775 56.08ZM13.7185 56.08L15.5019 55.1748L14.9462 54.08H13.7185V56.08ZM52.3745 132.24L52.4166 134.24L55.5983 134.173L54.1579 131.335L52.3745 132.24ZM40.2145 132.496L38.4073 131.639L37.021 134.564L40.2566 134.496L40.2145 132.496ZM76.4385 56.08V54.08H75.1732L74.6313 55.2233L76.4385 56.08ZM115.095 56.08L116.902 55.2233L116.36 54.08H115.095V56.08ZM151.319 132.496L151.276 134.496L154.512 134.564L153.126 131.639L151.319 132.496ZM139.159 132.24L137.375 131.335L135.935 134.173L139.116 134.24L139.159 132.24ZM177.815 56.08V54.08H176.587L176.031 55.1748L177.815 56.08ZM213.399 56.08L215.149 57.048L216.79 54.08H213.399V56.08ZM168.087 138V140H169.266L169.837 138.968L168.087 138ZM124.823 138L123.042 138.912L123.6 140H124.823V138ZM89.4945 69.008V67.008H86.2234L87.7143 69.9196L89.4945 69.008ZM102.039 69.008L103.819 69.9196L105.31 67.008H102.039V69.008ZM66.7105 138V140H67.9333L68.4907 138.912L66.7105 138ZM23.4465 138L25.192 137.024L-20.632 55.1036L-22.3775 56.08L-24.123 57.0564L21.701 138.976L23.4465 138ZM-22.3775 56.08V58.08H13.7185V56.08V54.08H-22.3775V56.08ZM13.7185 56.08L11.9351 56.9852L50.5911 133.145L52.3745 132.24L54.1579 131.335L15.5019 55.1748L13.7185 56.08ZM52.3745 132.24L52.3324 130.24L40.1724 130.496L40.2145 132.496L40.2566 134.496L52.4166 134.24L52.3745 132.24ZM40.2145 132.496L42.0217 133.353L78.2457 56.9367L76.4385 56.08L74.6313 55.2233L38.4073 131.639L40.2145 132.496ZM76.4385 56.08V58.08H115.095V56.08V54.08H76.4385V56.08ZM115.095 56.08L113.287 56.9367L149.511 133.353L151.319 132.496L153.126 131.639L116.902 55.2233L115.095 56.08ZM151.319 132.496L151.361 130.496L139.201 130.24L139.159 132.24L139.116 134.24L151.276 134.496L151.319 132.496ZM139.159 132.24L140.942 133.145L179.598 56.9852L177.815 56.08L176.031 55.1748L137.375 131.335L139.159 132.24ZM177.815 56.08V58.08H213.399V56.08V54.08H177.815V56.08ZM213.399 56.08L211.648 55.112L166.336 137.032L168.087 138L169.837 138.968L215.149 57.048L213.399 56.08ZM168.087 138V136H124.823V138V140H168.087V138ZM124.823 138L126.603 137.088L91.2747 68.0964L89.4945 69.008L87.7143 69.9196L123.042 138.912L124.823 138ZM89.4945 69.008V71.008H102.039V69.008V67.008H89.4945V69.008ZM102.039 69.008L100.258 68.0964L64.9303 137.088L66.7105 138L68.4907 138.912L103.819 69.9196L102.039 69.008ZM66.7105 138V136H23.4465V138V140H66.7105V138Z" fill="black" mask="url(#path-3-outside-1_0_1)"/>
<mask id="path-5-outside-2_0_1" maskUnits="userSpaceOnUse" x="30" y="54" width="138" height="86" fill="black">
<rect fill="white" x="30" y="54" width="138" height="86"/>
<path d="M32.0225 138V56.08H112.663C129.217 56.08 141.42 57.7013 149.271 60.944C157.121 64.1867 161.047 69.8187 161.047 77.84C161.047 82.96 159.34 86.8853 155.927 89.616C152.599 92.3467 147.777 94.2667 141.463 95.376C135.233 96.4 127.724 97.04 118.935 97.296L119.959 96.272C126.359 96.272 132.289 96.4427 137.751 96.784C143.212 97.1253 147.991 97.8933 152.087 99.088C156.183 100.283 159.383 102.117 161.687 104.592C163.991 107.067 165.143 110.48 165.143 114.832C165.143 120.123 163.265 124.475 159.511 127.888C155.756 131.301 150.423 133.861 143.511 135.568C136.599 137.189 128.449 138 119.063 138H32.0225ZM64.0225 113.936H119.063C123.585 113.936 126.828 113.509 128.791 112.656C130.839 111.803 131.863 110.437 131.863 108.56C131.863 107.28 131.393 106.256 130.455 105.488C129.601 104.72 128.236 104.165 126.359 103.824C124.481 103.397 122.049 103.184 119.063 103.184H64.0225V113.936ZM64.0225 90.896H113.687C118.209 90.896 121.452 90.4693 123.415 89.616C125.463 88.7627 126.487 87.3973 126.487 85.52C126.487 83.5573 125.463 82.192 123.415 81.424C121.452 80.5707 118.209 80.144 113.687 80.144H64.0225V90.896Z"/>
</mask>
<path d="M32.0225 138V56.08H112.663C129.217 56.08 141.42 57.7013 149.271 60.944C157.121 64.1867 161.047 69.8187 161.047 77.84C161.047 82.96 159.34 86.8853 155.927 89.616C152.599 92.3467 147.777 94.2667 141.463 95.376C135.233 96.4 127.724 97.04 118.935 97.296L119.959 96.272C126.359 96.272 132.289 96.4427 137.751 96.784C143.212 97.1253 147.991 97.8933 152.087 99.088C156.183 100.283 159.383 102.117 161.687 104.592C163.991 107.067 165.143 110.48 165.143 114.832C165.143 120.123 163.265 124.475 159.511 127.888C155.756 131.301 150.423 133.861 143.511 135.568C136.599 137.189 128.449 138 119.063 138H32.0225ZM64.0225 113.936H119.063C123.585 113.936 126.828 113.509 128.791 112.656C130.839 111.803 131.863 110.437 131.863 108.56C131.863 107.28 131.393 106.256 130.455 105.488C129.601 104.72 128.236 104.165 126.359 103.824C124.481 103.397 122.049 103.184 119.063 103.184H64.0225V113.936ZM64.0225 90.896H113.687C118.209 90.896 121.452 90.4693 123.415 89.616C125.463 88.7627 126.487 87.3973 126.487 85.52C126.487 83.5573 125.463 82.192 123.415 81.424C121.452 80.5707 118.209 80.144 113.687 80.144H64.0225V90.896Z" fill="white"/>
<path d="M32.0225 138H30.0225V140H32.0225V138ZM32.0225 56.08V54.08H30.0225V56.08H32.0225ZM149.271 60.944L150.034 59.0955L150.034 59.0955L149.271 60.944ZM155.927 89.616L154.677 88.0543L154.667 88.062L154.658 88.0699L155.927 89.616ZM141.463 95.376L141.787 97.3495L141.798 97.3477L141.809 97.3458L141.463 95.376ZM118.935 97.296L117.52 95.8818L113.96 99.4417L118.993 99.2951L118.935 97.296ZM119.959 96.272V94.272H119.13L118.544 94.8578L119.959 96.272ZM137.751 96.784L137.875 94.7879L137.875 94.7879L137.751 96.784ZM152.087 99.088L151.527 101.008L152.087 99.088ZM161.687 104.592L163.15 103.229L163.15 103.229L161.687 104.592ZM159.511 127.888L160.856 129.368L160.856 129.368L159.511 127.888ZM143.511 135.568L143.967 137.515L143.979 137.512L143.99 137.51L143.511 135.568ZM64.0225 113.936H62.0225V115.936H64.0225V113.936ZM128.791 112.656L128.021 110.81L128.007 110.816L127.993 110.822L128.791 112.656ZM130.455 105.488L129.117 106.975L129.152 107.006L129.188 107.036L130.455 105.488ZM126.359 103.824L125.915 105.774L125.958 105.784L126.001 105.792L126.359 103.824ZM64.0225 103.184V101.184H62.0225V103.184H64.0225ZM64.0225 90.896H62.0225V92.896H64.0225V90.896ZM123.415 89.616L122.645 87.7698L122.631 87.7757L122.617 87.7819L123.415 89.616ZM123.415 81.424L122.617 83.2581L122.664 83.2786L122.712 83.2967L123.415 81.424ZM64.0225 80.144V78.144H62.0225V80.144H64.0225ZM32.0225 138H34.0225V56.08H32.0225H30.0225V138H32.0225ZM32.0225 56.08V58.08H112.663V56.08V54.08H32.0225V56.08ZM112.663 56.08V58.08C129.156 58.08 141.033 59.7054 148.507 62.7925L149.271 60.944L150.034 59.0955C141.807 55.6973 129.278 54.08 112.663 54.08V56.08ZM149.271 60.944L148.507 62.7925C152.163 64.3024 154.765 66.3088 156.462 68.7436C158.153 71.1703 159.047 74.1675 159.047 77.84H161.047H163.047C163.047 73.4912 161.977 69.6617 159.743 66.4564C157.515 63.2592 154.229 60.8282 150.034 59.0955L149.271 60.944ZM161.047 77.84H159.047C159.047 82.469 157.532 85.7704 154.677 88.0543L155.927 89.616L157.176 91.1777C161.148 88.0003 163.047 83.451 163.047 77.84H161.047ZM155.927 89.616L154.658 88.0699C151.695 90.5011 147.246 92.3294 141.116 93.4062L141.463 95.376L141.809 97.3458C148.308 96.204 153.502 94.1923 157.195 91.1621L155.927 89.616ZM141.463 95.376L141.138 93.4025C135.023 94.4076 127.608 95.0425 118.876 95.2968L118.935 97.296L118.993 99.2951C127.839 99.0375 135.443 98.3924 141.787 97.3495L141.463 95.376ZM118.935 97.296L120.349 98.7102L121.373 97.6862L119.959 96.272L118.544 94.8578L117.52 95.8818L118.935 97.296ZM119.959 96.272V98.272C126.324 98.272 132.212 98.4418 137.626 98.7801L137.751 96.784L137.875 94.7879C132.366 94.4436 126.393 94.272 119.959 94.272V96.272ZM137.751 96.784L137.626 98.7801C142.979 99.1147 147.606 99.8644 151.527 101.008L152.087 99.088L152.647 97.168C148.375 95.9223 143.445 95.136 137.875 94.7879L137.751 96.784ZM152.087 99.088L151.527 101.008C155.366 102.128 158.221 103.805 160.223 105.955L161.687 104.592L163.15 103.229C160.544 100.43 156.999 98.4375 152.647 97.168L152.087 99.088ZM161.687 104.592L160.223 105.955C162.092 107.962 163.143 110.835 163.143 114.832H165.143H167.143C167.143 110.125 165.889 106.171 163.15 103.229L161.687 104.592ZM165.143 114.832H163.143C163.143 119.586 161.483 123.392 158.165 126.408L159.511 127.888L160.856 129.368C165.047 125.558 167.143 120.659 167.143 114.832H165.143ZM159.511 127.888L158.165 126.408C154.735 129.526 149.743 131.969 143.031 133.626L143.511 135.568L143.99 137.51C151.102 135.754 156.776 133.077 160.856 129.368L159.511 127.888ZM143.511 135.568L143.054 133.621C136.331 135.198 128.341 136 119.063 136V138V140C128.557 140 136.866 139.181 143.967 137.515L143.511 135.568ZM119.063 138V136H32.0225V138V140H119.063V138ZM64.0225 113.936V115.936H119.063V113.936V111.936H64.0225V113.936ZM119.063 113.936V115.936C123.621 115.936 127.221 115.519 129.588 114.49L128.791 112.656L127.993 110.822C126.434 111.5 123.549 111.936 119.063 111.936V113.936ZM128.791 112.656L129.56 114.502C130.817 113.978 131.913 113.234 132.695 112.192C133.492 111.128 133.863 109.886 133.863 108.56H131.863H129.863C129.863 109.112 129.721 109.49 129.495 109.792C129.252 110.115 128.812 110.48 128.021 110.81L128.791 112.656ZM131.863 108.56H133.863C133.863 106.718 133.153 105.111 131.721 103.94L130.455 105.488L129.188 107.036C129.634 107.401 129.863 107.842 129.863 108.56H131.863ZM130.455 105.488L131.792 104.001C130.536 102.871 128.743 102.225 126.716 101.856L126.359 103.824L126.001 105.792C127.729 106.106 128.666 106.569 129.117 106.975L130.455 105.488ZM126.359 103.824L126.802 101.874C124.722 101.401 122.126 101.184 119.063 101.184V103.184V105.184C121.972 105.184 124.24 105.394 125.915 105.774L126.359 103.824ZM119.063 103.184V101.184H64.0225V103.184V105.184H119.063V103.184ZM64.0225 103.184H62.0225V113.936H64.0225H66.0225V103.184H64.0225ZM64.0225 90.896V92.896H113.687V90.896V88.896H64.0225V90.896ZM113.687 90.896V92.896C118.245 92.896 121.845 92.479 124.212 91.4501L123.415 89.616L122.617 87.7819C121.058 88.4596 118.173 88.896 113.687 88.896V90.896ZM123.415 89.616L124.184 91.4622C125.441 90.9384 126.537 90.1938 127.319 89.152C128.116 88.0883 128.487 86.8457 128.487 85.52H126.487H124.487C124.487 86.0716 124.345 86.4504 124.119 86.752C123.876 87.0755 123.436 87.4403 122.645 87.7698L123.415 89.616ZM126.487 85.52H128.487C128.487 84.1736 128.128 82.9033 127.319 81.824C126.521 80.7609 125.399 80.032 124.117 79.5513L123.415 81.424L122.712 83.2967C123.478 83.584 123.892 83.9218 124.119 84.224C124.333 84.51 124.487 84.9038 124.487 85.52H126.487ZM123.415 81.424L124.212 79.5899C121.845 78.561 118.245 78.144 113.687 78.144V80.144V82.144C118.173 82.144 121.058 82.5804 122.617 83.2581L123.415 81.424ZM113.687 80.144V78.144H64.0225V80.144V82.144H113.687V80.144ZM64.0225 80.144H62.0225V90.896H64.0225H66.0225V80.144H64.0225Z" fill="black" mask="url(#path-5-outside-2_0_1)"/>
</g>
<rect x="1" y="1" width="190" height="190" stroke="black" stroke-width="2"/>
<defs>
<clipPath id="clip0_0_1">
<rect width="192" height="192" fill="white"/>
</clipPath>
</defs>
</svg>
